<svg xmlns="http://www.w3.org/2000/svg" xmlns:xlink="http://www.w3.org/1999/xlink" viewBox="0 0 400 300"><defs><linearGradient id="linear-gradient" x1="251.6" y1="229.7" x2="218.98" y2="260.72" gradientUnits="userSpaceOnUse"><stop offset="0" stop-color="#29abe2"/><stop offset="1" stop-color="#fff"/></linearGradient><linearGradient id="linear-gradient-2" x1="172.86" y1="180.32" x2="147.66" y2="217.5" xlink:href="#linear-gradient"/><linearGradient id="linear-gradient-3" x1="299.98" y1="197.11" x2="275.53" y2="217.76" gradientUnits="userSpaceOnUse"><stop offset="0" stop-color="#29abe2"/><stop offset="0.79" stop-color="#d2edf9"/><stop offset="1" stop-color="#fff"/></linearGradient></defs><title>101-110</title><g style="isolation:isolate"><g id="Layer_2" data-name="Layer 2"><path d="M49.38,174l115.5-67.17a5.46,5.46,0,0,1,5.46,0L343.06,205.7a5.46,5.46,0,0,1,0,9.47L232.63,278.94a17.83,17.83,0,0,1-17.83,0L49.4,183.48A5.46,5.46,0,0,1,49.38,174Z" fill="#a0d1f9"/><path d="M218.65,280.39l39.82-21.51-20-36.11-56.14,37.06C188.41,264,212.7,276.1,218.65,280.39Z" fill="url(#linear-gradient)" style="mix-blend-mode:multiply"/><path d="M175.23,255.66l61.27-34.28-98.17-64.51L70.64,196.19C76.69,200.33,169.28,251.38,175.23,255.66Z" fill="url(#linear-gradient-2)" style="mix-blend-mode:multiply"/><path d="M250.74,251.32,317.05,210,292.23,194.2l-67.69,39.32C230.59,237.66,244.8,247,250.74,251.32Z" fill="url(#linear-gradient-3)" style="mix-blend-mode:multiply"/><path d="M224.54,228.5a19.5,19.5,0,0,0,8.62-4c4.61-3.56-8.62-3.05-8.62-3.05Z" fill="#f2e2d1"/><path d="M127.45,162.89v11.87s.61,1.71,3.34,1.5,3.14-1.84,3.14-1.84V160.23Z" fill="#1a110a"/><path d="M214.16,216v11.87s.61,1.71,3.34,1.5,3.14-1.84,3.14-1.84V213.36Z" fill="#1a110a"/><path d="M233.35,165.38c5.91-3.91,12-7.54,17.88-11.47L155.5,99.17a12.35,12.35,0,0,0-12.39.07l-26.46,15.52c-4.35,2.56-3.69,6.45-3.69,6.45s-1.17,36.35,0,38.7,4.81,4.06,4.81,4.06L224.54,228.5C233.33,221.86,226.2,170.11,233.35,165.38Z" fill="#e8bc95"/><path d="M238.29,173.7s-89-51.07-88.87-51.61,0-19.16,0-19.16L254.5,163.4Z" fill="#f2e2d1"/><path d="M122.8,137.07l26.89-15L251.4,180.43l-30.54,16.7a4.8,4.8,0,0,1-4.65,0l-93.42-52.41A4.37,4.37,0,0,1,122.8,137.07Z" fill="#f7ecdf"/><path d="M263.38,162.07l-1.22-.1a26.84,26.84,0,0,1-6,3.42,188.2,188.2,0,0,1-28.69,17.21v42.75a13.94,13.94,0,0,0,3.85.22l27.38-16.23a11.83,11.83,0,0,0,5.8-10.18v-36C264.1,162.81,263.74,162.45,263.38,162.07Z" fill="#f2e2d1"/><path d="M113.85,116s-2.58.86,0,4.06,12-3.56,12-3.56l23.54-13.52L254.5,163.4,227.07,179s-2.12,1.66-.52,3.53,3.85,1,8.32-1.2,28.84-16,28.84-16,2.42-1.64-1.27-4.75-108-61.86-108-61.86a7.84,7.84,0,0,0-8.64-1.11C141,100.1,113.85,116,113.85,116Z" fill="#f7ecdf"/><path d="M138,175.22s-.17,5.23-1.21,6.09-6,3.59-8.32,3.72-2.13,2.54-.74,4,11.88.81,12.63.06,3.64-5.47,3.21-5.55-.63,6.3-.22,6.52a5.55,5.55,0,0,0,1.76.15l1.52-16.73" fill="#333"/><path d="M149.41,176.63s.7,5.18-.18,6.21-5.33,4.53-7.59,5-1.68,2.86-.07,4,11.85-1.17,12.46-2,2.68-6,2.24-6,.42,6.32.86,6.46a5.55,5.55,0,0,0,1.76-.14l-1.28-16.75" fill="#333"/><path d="M157.42,108.85s-13.65,8.09-28.39-.1l-.7,10.76s16.2,6.45,27.64,3.81" fill="#68e1fd"/><path d="M157.42,108.85s-13.65,8.09-28.39-.1l-.7,10.76s16.2,6.45,27.64,3.81" fill="#333" opacity="0.62"/><path d="M128.87,111s-1.77-.82-1.93-.93c-.74-.49-1.45-1.05-2.16-1.57a5.6,5.6,0,0,0-2.16-1.19,1.13,1.13,0,0,0-1.25,1.42c.15.82,1.52,1.71,2.06,2.3,0,0,.42-1,.47-1a5.11,5.11,0,0,1-.47,1,1,1,0,0,1-.11.34c-.65,1.21-1.56,2.28-2.25,3.47a4.32,4.32,0,0,1-.3.55l-.18.39a24,24,0,0,0,2.52.31,20.62,20.62,0,0,0,5.42.47C128.7,114.76,128.73,112.94,128.87,111Z" fill="#ffe8e6"/><path d="M125.33,114.37c-1.7-.71-1.63-2.45-1.36-4,.05-.29-.4-.42-.45-.12-.32,1.84-.27,3.75,1.69,4.57C125.48,114.93,125.61,114.48,125.33,114.37Z" fill="#42210b"/><path d="M147.49,151.27c1.08.09,11,1.26,18.51-1.47a26.8,26.8,0,0,0,3.72-9,52.39,52.39,0,0,0,1.4-8.72l-7.59.35a128.13,128.13,0,0,0-22.24,2.68c-4.26,1-9.1,1.95-12.17,5.33-3.49,3.85-2.46,9.19-1.46,13.81a138.4,138.4,0,0,0,6.9,21.84l18.36-2.74S145.51,151.11,147.49,151.27Z" fill="#e54b5d"/><path d="M155.19,154.28c6.4.52,17.65,2.91,20.49-5,.34-.94,1.45-14.13,0-14.06l-4.45.21A128.13,128.13,0,0,0,149,138.1c-4.26,1-9.1,1.95-12.17,5.33-3.49,3.85-2.46,9.19-1.46,13.81a138.4,138.4,0,0,0,6.9,21.84l18.36-2.74S153.22,154.12,155.19,154.28Z" fill="#e54b5d"/><path d="M123,126.79l5.6-6.93a1,1,0,0,0,.06-1.18L120,105.21a1,1,0,0,0-1.61-.11l-6.54,7.7a1,1,0,0,0,0,1.26l9.65,12.71A1,1,0,0,0,123,126.79Z" fill="#333"/><path d="M132.63,128.87l-.07,0a1,1,0,0,0-.49-1.34,1.08,1.08,0,0,0-.82-1.44,24.51,24.51,0,0,1-3.68-1,16.9,16.9,0,0,1-2.23-1.13c-.77-.4-1.52-.82-2.25-1.29a16.09,16.09,0,0,1-2.72-2.3c-.38-.39-.74-.8-1.13-1.18a7.07,7.07,0,0,1-1.11-1.15c-.56-.88-1.3-1.11-1.83-.12s.63,1.88,1.22,2.87c-1-.18-1.91-.3-2.87-.39l-.08.06q-1.36,1.19-.44,2.08a.51.51,0,0,1-.08.61c-.45.55-1,1.9.12,2.09a.51.51,0,0,1,.35.62,3,3,0,0,0,1.09,2.76c1.46.66,3,.55,4.7.81a32.56,32.56,0,0,1,5,1.38q2.54.65,5,1.46a1.12,1.12,0,0,0,1.37-1.47l.35.09C133.25,131.17,133.75,129.24,132.63,128.87Z" fill="#ffe8e6"/><path d="M114,123.16l-.09.13,3.5.43a.23.23,0,0,0,.06-.46l-3.32-.41A.67.67,0,0,1,114,123.16Z" fill="#42210b"/><path d="M114.49,125.85c1,.1,2.08.21,3.12.29.3,0,.36-.44.06-.46-1.11-.09-2.22-.2-3.33-.31A.6.6,0,0,1,114.49,125.85Z" fill="#42210b"/><path d="M115.06,128.09l2.93.13c.3,0,.36-.45.06-.46l-3.27-.15A2.94,2.94,0,0,0,115.06,128.09Z" fill="#42210b"/><path d="M157,108.75A41.39,41.39,0,0,1,125.33,124l-2.71,8.82s19.28,6.26,31.9-4.26l2.12,5.37s10.76,5.15,19.19,1.17c0,0-.3-23.57-17.22-31.45" fill="#68e1fd"/><path d="M157,108.75S145.05,124,125.33,124l-2.71,8.82s19.28,6.26,31.9-4.26l2.12,5.37s10.76,5.15,19.19,1.17c0,0-.3-23.57-17.22-31.45" fill="#333" opacity="0.13"/><path d="M148.09,98.15s-.57,10.61,4.62,11.89c5.93,1.45,9.91-6.73,7.26-11.33S149.48,94.58,148.09,98.15Z" fill="#ffe8e6"/><path d="M151.48,93.65a7.73,7.73,0,0,0-4.75,4.19c-.06.15-.11.29-.16.44a6.47,6.47,0,0,0-.06,1.28,2.67,2.67,0,0,0,1.64,2.45,6.13,6.13,0,0,1,1.76-4.84s-.6,1.17,5.1,3.72c0,0,3.92,5.18,2.83,7.86.1-.26.82-.63,1-.81a15.62,15.62,0,0,0,2.33-2.42C166,99.22,158.26,91.5,151.48,93.65Z" fill="#e54b5d"/><path d="M149.92,97.17s.17,4.85,6,5.73c3.5.54-3.91,7-.44,9s10-2.45,11.59-5.78-3.62-13-11.94-13.48c0,0-6-1.15-8.43,5.58" fill="#e54b5d"/><path d="M151.51,103a.23.23,0,0,0-.07.46A.23.23,0,0,0,151.51,103Z" fill="#42210b"/><path d="M148.89,102.52l-.13,0c-.29.09-.11.53.17.44l.13,0C149.35,102.86,149.18,102.42,148.89,102.52Z" fill="#42210b"/><path d="M158.26,102.91c-1-1.71-3.26.1-3.19,1.54a.41.41,0,0,0,.51.39.52.52,0,0,0,.05.16,1.38,1.38,0,0,1-.34,0c-.59-.12-.73.81-.14.93C156.6,106.19,159.24,104.65,158.26,102.91Zm-2,.81a.47.47,0,0,0,.17.14.44.44,0,0,0,.45-.05.53.53,0,0,1-.1.17.91.91,0,0,1-.71.34H156A1,1,0,0,1,156.28,103.72Z" fill="#ffe8e6"/><path d="M150.58,105.7c-.9,0-.41-1.05-.28-1.51s.31-1,.47-1.51c.1-.29-.36-.41-.45-.12-.17.5-.33,1-.47,1.51a5.63,5.63,0,0,0-.33,1.29c0,.62.54.8,1.06.82C150.88,106.19,150.88,105.72,150.58,105.7Z" fill="#42210b"/><path d="M152.89,105.65a1.91,1.91,0,0,1-.75,1,2.62,2.62,0,0,1-1.54.16c-.29,0-.42.41-.12.45a3.3,3.3,0,0,0,1.74-.13,2.14,2.14,0,0,0,1.08-1.26C153.42,105.61,153,105.37,152.89,105.65Z" fill="#42210b"/><path d="M250.74,213.89c-2.37,2-5.4,6.8-7.2,9.18-.39.52-.82,1.06-1.23,1.64l-4.63-5.09,7-11Z" fill="#68e1fd"/><path d="M240.13,215.43a6.6,6.6,0,0,0,5.81,4c-.5,1.76-1.77,5.06-1.15,6.39.91,2,8.31,10.65,3.57,11.8-3.52.86-13.76-11.27-13.27-13.35C235.43,222.85,238.75,217.62,240.13,215.43Z" fill="#68e1fd"/><path d="M252.65,237.27a44.44,44.44,0,0,0,1.71,7.63c1.63,4.06,9.08,13.23,2.18,15.45-7.32,2.36-11.87-10.81-12.32-13.17a39.16,39.16,0,0,1-.11-10.11C246.62,238.61,249.87,238.33,252.65,237.27Z" fill="#68e1fd"/><g opacity="0.9"><path d="M250.74,213.89c-2.37,2-5.4,6.8-7.2,9.18-.39.52-.82,1.06-1.23,1.64l-4.63-5.09,7-11Z" fill="#333"/><path d="M240.13,215.43a6.6,6.6,0,0,0,5.81,4c-.5,1.76-1.77,5.06-1.15,6.39.91,2,8.31,10.65,3.57,11.8-3.52.86-13.76-11.27-13.27-13.35C235.43,222.85,238.75,217.62,240.13,215.43Z" fill="#333"/></g><path d="M254.88,150.12s20.36,27.74,18.25,37.13-19.38,27.3-19.38,27.3L252,196.19s4.95-8.62,4.52-9.9-5.32-5.81-5.32-5.81l-7-27.14" fill="#68e1fd"/><path d="M242,232.19c-2.69-12.21-4.31-27-4.51-27.89-.28-1.18-7.11-39.72-7.11-39.72,1.29-6-1.55-4.46-.77-10.51,1.4-.12,6.94-2.3,8.3-2.58,2.84-.59,5.45-4.51,8.09-5.75,2.7,15.26,7,60.06,9,84C253.06,234,248.37,234.75,242,232.19Z" fill="#68e1fd"/><path d="M254.88,150.12s20.36,27.74,18.25,37.13-19.38,27.3-19.38,27.3L252,196.19s4.95-8.62,4.52-9.9-6.26-7-6.26-7l-3.38-27.5" fill="#333" opacity="0.62"/><path d="M266.88,135.28c2-1.06,3-3.1,4.85-4.35l.11-.09.15-.05a1.23,1.23,0,0,1,1.37,1.79,5.06,5.06,0,0,1-2.2,2.12,1.12,1.12,0,0,1-.72.55,24.24,24.24,0,0,0-3.26,1.12,1.26,1.26,0,0,1-1.66-.44,1.32,1.32,0,0,1-.12-.93A1.15,1.15,0,0,0,266.88,135.28Z" fill="#ffc4b0"/><path d="M266.79,138.86v0c.71-1.66,1.32-3.35,2-5,.42-.43.82-.88,1.24-1.32a1.15,1.15,0,0,1,.28,0,1.13,1.13,0,0,1,1.06,1.48l-.15.39a1.26,1.26,0,0,1,0,1q-.76,1.62-1.53,3.24a6.11,6.11,0,0,1-.73,1.51l-.31.65c-.68,1.41-2.78.18-2.1-1.23Z" fill="#ffc4b0"/><path d="M252.94,123.42c.7,5.58,0,11.51,2.32,16.78a18.52,18.52,0,0,0,3,4.62l.21.23c-5-.11-6.87-.84-6.87-.84l.79-24.57c.15.44.47,1.48.88,2.89A.94.94,0,0,0,252.94,123.42Z" fill="#42210b"/><path d="M252.7,231.78a37,37,0,0,0-.28,9.65c.1.69.19,1.45.34,2.2l-8.17-1.38V231.78Z" fill="#ffc4b0"/><path d="M252.65,237.27a44.44,44.44,0,0,0,1.71,7.63c1.63,4.06,9.08,13.23,2.18,15.45-7.32,2.36-11.87-10.81-12.32-13.17a39.16,39.16,0,0,1-.11-10.11C246.62,238.61,249.87,238.33,252.65,237.27Z" fill="#333" opacity="0.9"/><path d="M242,232.19c-2.69-12.21-4.31-27-4.51-27.89-.28-1.18-7.11-39.72-7.11-39.72,1.29-6-1.55-4.46-.77-10.51,1.4-.12,6.94-2.3,8.3-2.58,2.84-.59,5.45-4.51,8.09-5.75,2.7,15.26,7,60.06,9,84C253.06,234,248.37,234.75,242,232.19Z" fill="#333" opacity="0.62"/><path d="M230.53,176.89a41.08,41.08,0,0,1,.76-5.57,41.76,41.76,0,0,1,.49-6.4,61.86,61.86,0,0,1,6.93.11c0,1.15,0,2.3.07,3.45q.4,1.26.71,2.55a1.13,1.13,0,0,1,.33.44,21,21,0,0,1,2,6.88,1.24,1.24,0,0,1-2.29.61q-.53-1.16-1-2.35,0,1.61,0,3.22a1.26,1.26,0,0,1-1.24,1.22,1.49,1.49,0,0,1-1.47-.85,1.45,1.45,0,0,1-1.69.5,2.08,2.08,0,0,1-1.05-1.21,1.59,1.59,0,0,1-1.45,0C230.57,179,230.47,177.9,230.53,176.89Z" fill="#ffc4b0"/><path d="M268.51,131c-.79.38-1.56.76-2.31,1.06-2.9,1.14-7,1.65-8.95-1.4-1.49-2.39-2-5.29-2.42-8-.4-2.43-.43-5.49-2.37-7.28a8,8,0,0,0-3.77-1.76c-3.43-.76-5.22,0-8.33,1.49-4,1.9-8.91,4.25-10.86,8.47-2.46,5.33-3.12,24.72-.17,43.25,3.76.16,7.44.07,10.91-1.39-.46-4.22-1.06-8.64-1.06-8.64.45-.51,9.85.71,15.7-6.67l-.37-5.58c1.37.3.83.44,2.08.49a29.14,29.14,0,0,0,10.67-1.66C268.88,139.55,268.81,135.18,268.51,131Z" fill="#68e1fd"/><path d="M268.51,131c-.79.38-1.56.76-2.31,1.06-2.9,1.14-7,1.65-8.95-1.4-1.49-2.39-2-5.29-2.42-8-.4-2.43-.43-5.49-2.37-7.28a8,8,0,0,0-3.77-1.76c-3.43-.76-5.22,0-8.33,1.49-4,1.9-8.91,4.25-10.86,8.47-2.46,5.33-3.12,24.72-.17,43.25,3.76.16,7.44.07,10.91-1.39-.46-4.22-1.06-8.64-1.06-8.64.45-.51,9.85.71,15.7-6.67l-.37-5.58c1.37.3.83.44,2.08.49a29.14,29.14,0,0,0,10.67-1.66C268.88,139.55,268.81,135.18,268.51,131Z" fill="#333" opacity="0.13"/><path d="M244.55,119a5.39,5.39,0,0,1-2.55.74c-2.87.15-4.57-2.88-5.67-5.07a19.45,19.45,0,0,1-2.36-8.31,4.41,4.41,0,0,1,.17-1.4c1.09-3.28,12.86-5.73,13.53.75C248.08,109.53,248.39,116.66,244.55,119Z" fill="#ffc4b0"/><path d="M235.37,109.87a2.87,2.87,0,0,1,2.2.84,3.69,3.69,0,0,1,1.15,2.2.78.78,0,0,1-.41.86,1,1,0,0,1-1.44.31,8.16,8.16,0,0,1-2.05-1.91C234.3,111.42,234.22,110.09,235.37,109.87Z" fill="#ffc4b0"/><path d="M231,101.92a5,5,0,0,1,2.22-3.46,5.45,5.45,0,0,1,4.52-.67,4.92,4.92,0,0,1,2.52-2.1,5,5,0,0,1,5.43,1.64,7.44,7.44,0,0,1,4.78,1.11A5.85,5.85,0,0,1,253,103a3.59,3.59,0,0,1,0,.79,4.42,4.42,0,0,1-.05,1.4c-.61,3.21-3.4,4-5.09,4.16.27-1.73,0-5.09-2-4.21a.78.78,0,0,0-.33.08c-1.26.6-.21,2.35-2,2.58s-2.87-1.15-4.54.49,2,3.47-1.89,6.48a6.3,6.3,0,0,1-.08.65c0-.26-1.54-1.67-1.77-1.94-.63-.73-1.23-1.49-1.8-2.27a14.88,14.88,0,0,1-2.43-4.26A10.66,10.66,0,0,1,231,101.92Z" fill="#333"/><path d="M235.74,112.16c-.17-1.14.71-1.79,1.62-1.31a4.68,4.68,0,0,1,2.27,3.84,1.08,1.08,0,0,1-.32.84,1,1,0,0,1-.16.24,1.06,1.06,0,0,1-1.57-.08A6.11,6.11,0,0,1,235.74,112.16Z" fill="#ffc4b0"/><path d="M245.8,110.59c.37-.07,3.86-1.34,3.86-1.34s.13,3.47-1.72,4.26S245.8,110.59,245.8,110.59Z" fill="none" stroke="#333" stroke-miterlimit="10" stroke-width="0.75"/><path d="M244,111.17l-4.08,1.39s0,3.45,2.67,2.87S244,111.17,244,111.17Z" fill="none" stroke="#333" stroke-miterlimit="10" stroke-width="0.75"/><path d="M238,110.7l1.93,1.7c.24.21-.12.56-.36.35l-1.93-1.7C237.41,110.83,237.77,110.49,238,110.7Z" fill="#333"/><path d="M245.43,115.43c.32,0,.78-.13.77-.51a2.39,2.39,0,0,0-.28-.68c-.19-.43-.4-.85-.62-1.26a.25.25,0,0,1,.44-.24c.22.41.44.83.62,1.26a2.9,2.9,0,0,1,.38,1.06c0,.6-.85.83-1.32.87C245.09,116,245.11,115.45,245.43,115.43Z" fill="#333"/><path d="M243.81,111a18,18,0,0,0,2.15-.59c.31-.1.42.38.12.49a18,18,0,0,1-2.15.59C243.62,111.51,243.5,111,243.81,111Z" fill="#333"/><polygon points="281.37 131.65 273.4 142.92 267.55 143.35 275.49 131.38 281.37 131.65" fill="#2d2d2d"/><polygon points="279.1 129.59 273.58 130.17 264.9 142.29 267.55 143.35 274.62 133.55 281.37 131.65 279.1 129.59" fill="#606060"/><path d="M273.1,139.94h.41a1.23,1.23,0,0,1,.94-2h1a1.25,1.25,0,0,1-.2-1.49c.52-.81,2.64-.87,3.1,0a1.23,1.23,0,0,1-.44,1.66l-.29.12a1.24,1.24,0,0,1-.81,2.13h-.17a1.2,1.2,0,0,1-1,1.9,17,17,0,0,1-2.51.07,1.24,1.24,0,0,1-1.22-1.22A1.23,1.23,0,0,1,273.1,139.94Z" fill="#ffc4b0"/><path d="M249.82,167.84c-.06-.52-.88-.53-.82,0q3.35,30.32,5.29,60.78c0,.53.86.53.82,0Q253.18,198.18,249.82,167.84Z" fill="#333"/><path d="M239.18,156.79c-.41-1.27-2.6-22.69-2.6-22.69l4.66,22.46Z" fill="#333"/><path d="M258.27,145c-.93-1.4-5.19-7.91-6.36-12.26l2.65,11.93A13.06,13.06,0,0,0,258.27,145Z" fill="#333"/><polyline points="273.52 102.93 281.2 119.63 281.2 105.28" fill="#68e1fd"/><path d="M272.91,77.54l30.34,17.52a1.57,1.57,0,0,1,.79,1.36v24.75a1.57,1.57,0,0,1-2.36,1.35l-30.34-17.79a1.57,1.57,0,0,1-.78-1.35V78.9A1.57,1.57,0,0,1,272.91,77.54Z" fill="#68e1fd"/><polyline points="135.22 76.97 127.55 93.67 127.55 79.32" fill="#ffb3a6"/><path d="M135.84,51.58,105.5,69.09a1.57,1.57,0,0,0-.79,1.36V95.21a1.57,1.57,0,0,0,2.36,1.35l30.34-17.79a1.57,1.57,0,0,0,.78-1.35V52.94A1.57,1.57,0,0,0,135.84,51.58Z" fill="#ffb3a6"/><ellipse cx="301.83" cy="201.18" rx="20.35" ry="14.33" fill="#68e1fd"/><ellipse cx="301.83" cy="201.18" rx="20.35" ry="14.33" fill="#333" opacity="0.62"/><ellipse cx="301.82" cy="192.72" rx="15.24" ry="6.24" fill="#333"/><path d="M301.25,182.31c0-2.82-.1-5.63-.32-8.44q-.09-1.09-.2-2.18c0-.12-.12-1-.16-1.44s-.23-1.5-.22-1.46q-.14-.86-.3-1.71a67.18,67.18,0,0,0-10.88-26.6,38.9,38.9,0,0,0-3,15.58c0,1.55.12,3.08.25,4.62,0,.41,0,.59.05.65s0-.09.07.26c.13.76.26,1.51.42,2.27a61.49,61.49,0,0,0,2.41,8.44,51.35,51.35,0,0,0,3.29,7.36c1.38,2.66,2.89,5.25,4.5,7.77,1.26,2,2.46,3.75,3.66,5.42C301.08,189.36,301.25,185.84,301.25,182.31Zm-8-31.63a2.53,2.53,0,0,0-.07-1.09h0q.59.6,1.14,1.22A3.49,3.49,0,0,0,293.25,150.68Z" fill="#ffb3a6"/><path d="M306.5,184.49c1.52-2.37,3-4.79,4.29-7.27q.52-1,1-1.94l.64-1.3.61-1.35q.34-.8.67-1.6A67.18,67.18,0,0,0,319,142.76a38.9,38.9,0,0,0-11,11.47c-.83,1.31-1.57,2.66-2.29,4l-.31.58s.06-.07-.08.26c-.3.71-.6,1.42-.87,2.13a61.49,61.49,0,0,0-2.54,8.41,51.35,51.35,0,0,0-1.21,8c-.28,3-.4,6-.41,9,0,2.34,0,4.48.15,6.54C302.55,190.32,304.59,187.45,306.5,184.49Zm10.37-30.94a2.53,2.53,0,0,0,.53-1h0q.17.82.3,1.65A3.49,3.49,0,0,0,316.87,153.55Z" fill="#ffb3a6"/><path d="M306.39,191.5q2.38-1.18,4.66-2.54l1.17-.72.76-.49.76-.53.88-.65A42.25,42.25,0,0,0,326.58,173a24.47,24.47,0,0,0-9.62,2.65c-.87.44-1.7.93-2.53,1.44l-.35.21s.05,0-.13.11c-.39.28-.78.57-1.16.87A38.67,38.67,0,0,0,308.7,182a32.29,32.29,0,0,0-3.23,3.91c-1.11,1.52-2.15,3.1-3.12,4.71-.76,1.26-1.42,2.43-2,3.58C302.37,193.37,304.4,192.49,306.39,191.5ZM322,178.15a1.59,1.59,0,0,0,.6-.35h0q-.17.5-.37,1A2.19,2.19,0,0,0,322,178.15Z" fill="#ffb3a6"/><path d="M301.25,182.31c0-2.82-.1-5.63-.32-8.44q-.09-1.09-.2-2.18c0-.12-.12-1-.16-1.44s-.23-1.5-.22-1.46q-.14-.86-.3-1.71a67.18,67.18,0,0,0-10.88-26.6,38.9,38.9,0,0,0-3,15.58c0,1.55.12,3.08.25,4.62,0,.41,0,.59.05.65s0-.09.07.26c.13.76.26,1.51.42,2.27a61.49,61.49,0,0,0,2.41,8.44,51.35,51.35,0,0,0,3.29,7.36c1.38,2.66,2.89,5.25,4.5,7.77,1.26,2,2.46,3.75,3.66,5.42C301.08,189.36,301.25,185.84,301.25,182.31Zm-8-31.63a2.53,2.53,0,0,0-.07-1.09h0q.59.6,1.14,1.22A3.49,3.49,0,0,0,293.25,150.68Z" fill="#ffb3a6"/><path d="M306.5,184.49c1.52-2.37,3-4.79,4.29-7.27q.52-1,1-1.94l.64-1.3.61-1.35q.34-.8.67-1.6A67.18,67.18,0,0,0,319,142.76a38.9,38.9,0,0,0-11,11.47c-.83,1.31-1.57,2.66-2.29,4l-.31.58s.06-.07-.08.26c-.3.71-.6,1.42-.87,2.13a61.49,61.49,0,0,0-2.54,8.41,51.35,51.35,0,0,0-1.21,8c-.28,3-.4,6-.41,9,0,2.34,0,4.48.15,6.54C302.55,190.32,304.59,187.45,306.5,184.49Zm10.37-30.94a2.53,2.53,0,0,0,.53-1h0q.17.82.3,1.65A3.49,3.49,0,0,0,316.87,153.55Z" fill="#ffb3a6"/><path d="M306.39,191.5q2.38-1.18,4.66-2.54l1.17-.72.76-.49.76-.53.88-.65A42.25,42.25,0,0,0,326.58,173a24.47,24.47,0,0,0-9.62,2.65c-.87.44-1.7.93-2.53,1.44l-.35.21s.05,0-.13.11c-.39.28-.78.57-1.16.87A38.67,38.67,0,0,0,308.7,182a32.29,32.29,0,0,0-3.23,3.91c-1.11,1.52-2.15,3.1-3.12,4.71-.76,1.26-1.42,2.43-2,3.58C302.37,193.37,304.4,192.49,306.39,191.5ZM322,178.15a1.59,1.59,0,0,0,.6-.35h0q-.17.5-.37,1A2.19,2.19,0,0,0,322,178.15Z" fill="#ffb3a6"/><path d="M217.35,51.93l-.76,41.91a2.64,2.64,0,0,1-3.81,2.31L177.16,78.41a3.49,3.49,0,0,1-1.93-3.19L176,33.29a2.85,2.85,0,0,1,4.15-2.49l35.31,18A3.49,3.49,0,0,1,217.35,51.93Z" fill="#ffb3a6"/><path d="M181.41,58.28c6.78,1.91,4.44,9.44,9.31,13.44,5.93,4.87,8.17-9,15.45-8.08,8.73,1,10.42,30.2,10.42,30.2-1.38,3.31-3.81,2.31-3.81,2.31L175.19,77.43l.29-16.13C177.06,59.46,179,58,181.41,58.28Z" fill="#e54b5d"/><path d="M159.54,135.62c-8.31.43-21.51.42-25.2,9.78-1.86,4.7-.46,10.65.59,15.4a153.12,153.12,0,0,0,5.36,17.51c.21.6,1.18.34,1-.27-1.66-4.73-3.32-9.47-4.59-14.32s-2.61-10.22-2-15.23c1.32-11.3,16.34-11.42,24.9-11.87C160.18,136.59,160.18,135.59,159.54,135.62Z" fill="#333"/><path d="M109.86,78.55l23-13.06a1.13,1.13,0,0,0-1.14-1.94l-23,13.06a1.13,1.13,0,0,0,1.14,1.94Z" fill="#f2f2f2"/><path d="M110.76,85.83,133.28,73a1.13,1.13,0,0,0-1.14-1.94l-22.52,12.8a1.13,1.13,0,0,0,1.14,1.94Z" fill="#f2f2f2"/><path d="M299,102.93,276,89.88a1.13,1.13,0,0,0-1.14,1.94l23,13.06a1.13,1.13,0,0,0,1.14-1.94Z" fill="#f2f2f2"/><path d="M298.1,109.33l-22.52-12.8a1.13,1.13,0,0,0-1.14,1.94L297,111.28a1.13,1.13,0,0,0,1.14-1.94Z" fill="#f2f2f2"/></g></g></svg>