<svg xmlns="http://www.w3.org/2000/svg" viewBox="0 0 400 300"><title>-</title><g style="isolation:isolate"><g id="Layer_1" data-name="Layer 1"><path d="M12.72,181.54l165.54,95.57a13.88,13.88,0,0,0,13.79,0L383,168.63a7.74,7.74,0,0,0,.05-13.42L213,56.84a5.36,5.36,0,0,0-5.42,0L12.67,172.29A5.36,5.36,0,0,0,12.72,181.54Z" fill="#ededf7"/><path d="M269.65,145.78s.47,7.4,1.17,8.22,8,3.43,9.16,5.42-1.27,7.54-6.8,6.17a59.47,59.47,0,0,1-14.24-6.17c-1-.84,0-16,0-16Z" fill="#454859"/><path d="M244.45,133.18s-3,6.8-2.7,7.85,5.78,4.19,5.93,6.49c.16,2.64-1.47,5.22-4.1,4.52a8,8,0,0,1-2.06-1c-3.24-2-6.7-3.77-9.65-6.17-3.28-2.68-.56-7.43.51-10.7q1.52-4.66,3.12-9.29v0Z" fill="#454859"/><path d="M246.49,69.34s-6,32.63-8.92,39.54-6.58,19.3-6.58,19.3,5.44,10.24,16.11,6.54l13.33-43.58" fill="#68e1fd"/><path d="M246.49,69.34s-6,32.63-8.92,39.54-6.58,19.3-6.58,19.3,5.44,10.24,16.11,6.54l13.33-43.58" opacity="0.25"/><path d="M267.48,73.15s1.82,26.42,2.92,36.17c1.31,11.51,2.78,38,2.78,38a18.64,18.64,0,0,1-17,0s-3.74-32-5.62-37.38S246,74.49,246,74.49Z" fill="#68e1fd"/><path d="M246,74.49l2.1-23.83,19.34,1.41V73.15C261.34,81,246,74.49,246,74.49" fill="#68e1fd"/><polyline points="101 203.06 113.07 195.94 109.76 192.39 100.45 198.47" fill="#c65517"/><polyline points="93.33 193.89 107.38 185.87 112.46 191.68 101 198.43" fill="#ea6c0f"/><polygon points="101 198.43 93.33 193.89 93.33 198.43 101 203.06 101 198.43" fill="#ff7c28"/><polyline points="79.54 190.88 91.61 183.77 88.31 180.22 79 186.3" fill="#c65517"/><polyline points="71.88 181.72 85.93 173.7 91.01 179.51 79.54 186.26" fill="#ea6c0f"/><polygon points="79.54 186.26 71.88 181.72 71.88 186.26 79.54 190.88 79.54 186.26" fill="#ff7c28"/><polyline points="57.93 178.62 70 171.51 66.69 167.95 57.39 174.03" fill="#c65517"/><polyline points="50.26 169.45 64.32 161.44 69.4 167.24 57.93 173.99" fill="#ea6c0f"/><polygon points="57.93 173.99 50.26 169.45 50.26 173.99 57.93 178.62 57.93 173.99" fill="#ff7c28"/><polyline points="125.45 217.31 137.52 210.19 134.21 206.64 124.91 212.72" fill="#c65517"/><polyline points="117.78 208.14 131.84 200.13 136.92 205.93 125.45 212.68" fill="#ea6c0f"/><polygon points="125.45 212.68 117.78 208.14 117.78 212.68 125.45 217.31 125.45 212.68" fill="#ff7c28"/><polyline points="186.5 201.78 174.43 194.66 177.74 191.11 187.04 197.19" fill="#c65517"/><polyline points="194.17 192.61 180.11 184.59 175.03 190.4 186.5 197.15" fill="#ea6c0f"/><polygon points="186.5 197.15 194.17 192.61 194.17 197.15 186.5 201.78 186.5 197.15" fill="#ff7c28"/><polyline points="207.08 189.84 195.01 182.73 198.32 179.18 207.62 185.26" fill="#c65517"/><polyline points="214.75 180.67 200.69 172.66 195.61 178.47 207.08 185.22" fill="#ea6c0f"/><polygon points="207.08 185.22 214.75 180.67 214.75 185.22 207.08 189.84 207.08 185.22" fill="#ff7c28"/><polyline points="229.6 176.25 217.52 169.14 220.83 165.59 230.14 171.67" fill="#c65517"/><polyline points="237.26 167.09 223.21 159.07 218.13 164.88 229.6 171.63" fill="#ea6c0f"/><polygon points="229.6 171.63 237.26 167.09 237.26 171.63 229.6 176.25 229.6 171.63" fill="#ff7c28"/><polyline points="162.35 216.27 150.28 209.16 153.59 205.6 162.89 211.68" fill="#c65517"/><polyline points="170.01 207.1 155.96 199.08 150.88 204.89 162.35 211.64" fill="#ea6c0f"/><polygon points="162.35 211.64 170.01 207.1 170.01 211.64 162.35 216.27 162.35 211.64" fill="#ff7c28"/><path d="M53.57,160.75v2.63l91.05,52.88s93.95-55.64,93.89-55.93,0-2.93,0-2.93" fill="#68e1fd"/><path d="M53.57,160.75v2.63l91.05,52.88s93.95-55.64,93.89-55.93,0-2.93,0-2.93" opacity="0.25"/><polygon points="144.87 212.96 238.51 157.41 146.14 104.08 53.57 160.75 144.87 212.96" fill="#68e1fd"/><polyline points="117.2 122.28 117.2 125.89 197.37 171.71 213.75 162.5 213.75 158.78" fill="#ea6c0f"/><polygon points="213.75 158.78 198.11 168.04 117.2 122.28 133.88 112.4 213.75 158.78" fill="#ff8522"/><polyline points="115.73 118.31 115.73 121.92 195.89 167.74 212.28 158.53 212.28 154.81" fill="#ea6c0f"/><polygon points="212.28 154.81 196.64 164.07 115.73 118.31 132.41 108.43 212.28 154.81" fill="#ff8522"/><polyline points="95.97 134.39 95.97 138 176.13 183.81 192.51 174.61 192.51 170.88" fill="#ea6c0f"/><polygon points="192.51 170.88 176.87 180.15 95.97 134.39 112.65 124.5 192.51 170.88" fill="#ff8522"/><polyline points="94.5 130.42 94.5 134.03 174.66 179.84 191.04 170.64 191.04 166.91" fill="#ea6c0f"/><polygon points="191.04 166.91 175.4 176.18 94.5 130.42 111.18 120.54 191.04 166.91" fill="#ff8522"/><polyline points="76.77 147.33 76.77 150.94 156.93 196.75 173.31 187.55 173.31 183.82" fill="#ea6c0f"/><polygon points="173.31 183.82 157.67 193.09 76.77 147.33 93.45 137.44 173.31 183.82" fill="#ff8522"/><polyline points="76.27 142.95 76.27 146.56 156.43 192.37 172.81 183.17 172.81 179.44" fill="#ea6c0f"/><polygon points="172.81 179.44 157.18 188.71 76.27 142.95 92.95 133.07 172.81 179.44" fill="#ff8522"/><polyline points="114.7 113.97 114.7 117.58 194.86 163.39 211.24 154.19 211.24 150.46" fill="#ea6c0f"/><polygon points="211.24 150.46 195.6 159.72 114.7 113.97 131.38 104.08 211.24 150.46" fill="#ff8522"/><polyline points="113.23 110 113.23 113.61 193.39 159.42 209.77 150.22 209.77 146.49" fill="#ea6c0f"/><polygon points="209.77 146.49 194.13 155.75 113.23 110 129.91 100.11 209.77 146.49" fill="#ff8522"/><polyline points="94.03 126.75 94.03 130.36 174.19 176.18 190.57 166.97 190.57 163.25" fill="#ea6c0f"/><polygon points="190.57 163.25 174.93 172.51 94.03 126.75 110.71 116.87 190.57 163.25" fill="#ff8522"/><polyline points="92.56 122.78 92.56 126.39 172.72 172.21 189.1 163 189.1 159.28" fill="#ea6c0f"/><polygon points="189.1 159.28 173.46 168.54 92.56 122.78 109.24 112.9 189.1 159.28" fill="#ff8522"/><polyline points="114.7 110 114.7 113.61 194.86 159.42 211.24 150.22 211.24 146.49" fill="#ea6c0f"/><polygon points="211.24 146.49 195.6 155.75 114.7 110 131.38 100.11 211.24 146.49" fill="#ff8522"/><polyline points="92.28 123.24 92.28 126.85 172.44 172.66 188.83 163.46 188.83 159.73" fill="#ea6c0f"/><polygon points="188.83 159.73 173.19 169 92.28 123.24 108.97 113.36 188.83 159.73" fill="#ff8522"/><polyline points="90.81 119.27 90.81 122.88 170.97 168.69 187.35 159.49 187.35 155.76" fill="#ea6c0f"/><polygon points="187.35 155.76 171.72 165.03 90.81 119.27 107.49 109.39 187.35 155.76" fill="#ff8522"/><polyline points="184.69 227.41 240.94 193.26 246.57 209.02 188.41 244.17" fill="#ffba93"/><ellipse cx="186.12" cy="235.96" rx="5.44" ry="8.69" transform="translate(-26.21 23.28) rotate(-6.69)" fill="#e59a76"/><ellipse cx="243.66" cy="201.21" rx="5.44" ry="8.69" transform="translate(-21.77 29.74) rotate(-6.69)" fill="#ffba93"/><polyline points="197.07 236.09 253.32 201.95 258.95 217.7 200.78 252.86" fill="#f4a57d"/><ellipse cx="198.49" cy="244.64" rx="5.44" ry="8.69" transform="translate(-27.14 24.78) rotate(-6.69)" fill="#e59a76"/><ellipse cx="256.04" cy="209.9" rx="5.44" ry="8.69" transform="translate(-22.7 31.24) rotate(-6.69)" fill="#f4a57d"/><polyline points="195.63 218.18 251.88 184.03 257.51 199.79 199.34 234.95" fill="#ffba93"/><ellipse cx="197.05" cy="226.73" rx="5.44" ry="8.69" transform="translate(-25.06 24.49) rotate(-6.69)" fill="#e59a76"/><ellipse cx="254.6" cy="191.98" rx="5.44" ry="8.69" transform="translate(-20.62 30.95) rotate(-6.69)" fill="#ffba93"/><path d="M329.86,174.87l22.3-13.23a3.41,3.41,0,0,0,.12-5.8l-18.43-12a5.71,5.71,0,0,0-6.31,0l-21.9,14.74a3.41,3.41,0,0,0,.15,5.75l17.43,10.46A6.47,6.47,0,0,0,329.86,174.87Z" fill="#b24800"/><path d="M329.86,172.87l22.3-13.23a3.41,3.41,0,0,0,.12-5.8l-18.43-12a5.71,5.71,0,0,0-6.31,0l-21.9,14.74a3.41,3.41,0,0,0,.15,5.75l17.43,10.46A6.47,6.47,0,0,0,329.86,172.87Z" fill="#df5d00"/><path d="M326.15,119.86l-11.84,37.45s-2.89,9.5,14.87,8.54,15.42-9.78,15.42-9.78l-11.84-36.21" fill="#ff8522"/><path d="M321.76,133.73s2.35,2.43,7.76,2.43c6.76,0,7.48-3.33,7.48-3.33l2.48,7.57s-1.78,4.27-10,4.13c-7.4-.12-10.3-2.78-10.3-2.78" fill="#fff"/><path d="M317.37,148a16.92,16.92,0,0,0,12,4.76c8.79-.1,12.09-6.35,12.09-6.35l2.61,8s-3.77,5.85-14.61,6.63c-10.22.73-14.61-5-14.61-5" fill="#fff"/><path d="M328.7,120.14h-2.54l-11.84,37.45s-2.69,8.86,13.11,8.6C327.78,150.83,328.55,135.49,328.7,120.14Z" fill="#ff8522" opacity="0.15" style="mix-blend-mode:multiply"/><ellipse cx="329.52" cy="120.14" rx="3.37" ry="1.93" fill="#ff9f57"/><polyline points="169.01 76.07 167.15 74.93 167.15 68.32 214.27 39.95 216.49 40.85" fill="#ffba93"/><polyline points="198.76 75.46 198.76 78.3 215.11 87.78 220.04 84.83 220.41 81.38" fill="#ca5a00"/><polygon points="204.08 71.95 220.41 81.38 215.44 84.89 198.76 75.46 204.08 71.95" fill="#ff8522"/><polyline points="164.61 95.86 164.61 98.69 180.95 108.17 185.89 105.22 186.26 101.77" fill="#ca5a00"/><polygon points="169.93 92.34 186.26 101.77 181.28 105.28 164.61 95.86 169.93 92.34" fill="#ff8522"/><path d="M208.47,51.63V78.85s.79,1.43,3.59,0V50.17" fill="#ffba93"/><path d="M173.17,71.82V99s.79,1.43,3.59,0V70.36" fill="#ffba93"/><polygon points="169.01 68.9 169.01 76.07 216.49 48.45 216.49 40.85 169.01 68.9" fill="#ff8522"/><path d="M269.92,31.33s.72,10-5,12.2S254,32.71,258,27.75" fill="#f54e5f"/><path d="M264.15,34.84c-.74-.07-.67,1.63-2.92,1.77s-1.88,1-2.25,2.18-.72,2.18-2.4,2a2.5,2.5,0,0,1-2.24-3.37c.7-1.55-.84-2.25-.7-3.51s1.13-5.06,3.62-5.48" fill="#454859"/><path d="M270.73,28.32a5.73,5.73,0,0,1,3,4.76c0,3.23-6.58,5.06-12.65,2.37s-6.52-4.57-6.52-4.57" fill="#ff9948"/><path d="M272.28,30.88s.13-7.82-6.07-9.3-10.27,1.55-11,4.65a14.26,14.26,0,0,0-.58,4.65,11.65,11.65,0,0,0,8.84,4.52C269.63,35.86,272.42,32.65,272.28,30.88Z" fill="#ffc759"/><path d="M257.25,23.09c.18-.16,1.22,0,1.49,0a10.75,10.75,0,0,1,5.54,1.46c1.94,1.27,2.77,3.39,3.23,5.58a6.87,6.87,0,0,1,.17,1.14,1.16,1.16,0,0,0,1.51.62c1.06-.4.75-2.12.75-2.13a9.61,9.61,0,0,0-10.27-8A15.58,15.58,0,0,0,257.25,23.09Z" fill="#ff9948"/><polyline points="205.71 27.88 205.71 31.12 277.72 72.27 292.44 64.01 292.44 60.66" fill="#ea6c0f"/><polygon points="292.44 60.66 278.39 68.98 205.71 27.88 220.69 19 292.44 60.66" fill="#ff8522"/><path d="M243.93,45.76l3.41-4.93s.65-6,1.68-5.39S250.85,39,250.85,39l3.5-1.56s6,3.48,6.08,4.63-4.24,6.35-5.86,6.21-6.11,4.93-6.11,4.93S244.18,48.58,243.93,45.76Z" fill="#f54e5f"/><path d="M249.48,51.26c-2.45-1.06-4.89-2.85-5.55-5.49C242.86,47.37,233.4,62,241,68.2c6.74,5.54,11.37-10.48,12.67-15.71A17.82,17.82,0,0,1,249.48,51.26Z" fill="#68e1fd"/></g></g></svg>